#!OML:ASF F:\VICON\USERDATA\INSTALL\rory3\rory3.ASF
:FULLY-SPECIFIED
:DEGREES
2752
root 0.962319 10.2061 -6.99984 343.86 -67.1292 -359.076
lowerback 42.2691 0.733003 0.9486
upperback 14.5384 -0.468814 -1.24382
thorax -3.85056 -0.807858 -1.57947
lowerneck -12.3401 -1.39531 -8.03315
upperneck -22.755 -2.95355 -3.60189
head -4.97962 -1.0937 0.255952
rclavicle -1.59028e-014 -9.93923e-015
rhumerus 33.6179 31.2444 -65.6377
rradius 81.2772
rwrist -29.2766
rhand -44.6005 1.31627
rfingers 7.12502
rthumb -17.3992 -27.925
lclavicle -1.59028e-014 -9.93923e-015
lhumerus 37.0946 -37.6766 54.786
lradius 78.163
lwrist 45.7235
lhand -40.469 27.7338
lfingers 7.12502
lthumb -13.4199 57.2815
rfemur -81.314 -11.9175 10.5624
rtibia 92.1388
rfoot 5.69034 -13.4737
rtoes 10.0652
lfemur -78.1801 16.3944 -8.32949
ltibia 88.1622
lfoot 12.9685 -3.71712
ltoes 3.59813
2753
root 0.964061 10.207 -7.00193 343.833 -67.1065 -359.069
lowerback 42.2147 0.751275 0.879288
upperback 14.5354 -0.465514 -1.17685
thorax -3.83766 -0.811394 -1.47467
lowerneck -12.2629 -1.30318 -7.99906
upperneck -22.6576 -2.81591 -3.58332
head -4.961 -1.02757 0.25574
rclavicle -6.0033e-014 1.96797e-014
rhumerus 33.6962 31.3921 -65.5237
rradius 81.2769
rwrist -29.1123
rhand -44.2256 1.82462
rfingers 7.12502
rthumb -17.0383 -27.4482
lclavicle -6.0033e-014 1.96797e-014
lhumerus 36.9037 -37.4227 55.1718
lradius 78.1546
lwrist 45.8914
lhand -40.7496 27.6012
lfingers 7.12502
lthumb -13.6903 57.1309
rfemur -81.2781 -11.8817 10.5215
rtibia 92.1354
rfoot 5.68797 -13.5492
rtoes 10.0341
lfemur -78.1444 16.3439 -8.31797
ltibia 88.1441
lfoot 12.9903 -3.70318
ltoes 3.77584
2754
root 0.965329 10.2067 -7.00302 343.755 -67.1013 -359.027
lowerback 42.1965 0.766022 0.818795
upperback 14.5181 -0.464137 -1.12303
thorax -3.85102 -0.814999 -1.38715
lowerneck -12.2472 -1.22968 -8.03583
upperneck -22.4717 -2.66888 -3.48237
head -4.90375 -0.958125 0.291792
rclavicle 7.31528e-014 -6.63941e-014
rhumerus 33.739 31.5153 -65.4064
rradius 81.285
rwrist -28.8373
rhand -43.3223 2.09992
rfingers 7.12502
rthumb -16.1688 -27.2457
lclavicle 7.31528e-014 -6.63941e-014
lhumerus 36.6646 -37.1574 55.6121
lradius 78.1497
lwrist 45.9883
lhand -41.2006 26.9933
lfingers 7.12502
lthumb -14.1249 56.4932
rfemur -81.2354 -11.8632 10.4824
rtibia 92.125
rfoot 5.73119 -13.535
rtoes 9.93699
lfemur -78.0938 16.3175 -8.31637
ltibia 88.1372
lfoot 12.9658 -3.64956
ltoes 3.51983
2755
root 0.96703 10.2049 -7.00279 343.825 -67.0902 -359.135
lowerback 42.1618 0.724206 0.901886
upperback 14.517 -0.480198 -1.11841
thorax -3.84294 -0.819163 -1.41907
lowerneck -12.2156 -1.17771 -8.01006
upperneck -22.3869 -2.57179 -3.38955
head -4.88068 -0.91554 0.316195
rclavicle 2.38542e-015 -5.96354e-016
rhumerus 33.7686 31.5979 -65.3356
rradius 81.3901
rwrist -28.8313
rhand -42.8676 2.26666
rfingers 7.12502
rthumb -15.7309 -27.114
lclavicle 2.38542e-015 -5.96354e-016
lhumerus 36.5058 -36.9209 55.9519
lradius 78.0405
lwrist 45.9835
lhand -41.2762 26.4056
lfingers 7.12502
lthumb -14.1978 55.9004
rfemur -81.1917 -11.8238 10.4755
rtibia 92.1101
rfoot 5.80165 -13.5016
rtoes 10.3106
lfemur -78.082 16.2657 -8.25542
ltibia 88.1381
lfoot 12.9728 -3.53035
ltoes 3.48695
2756
root 0.968021 10.2036 -7.00297 344.089 -67.103 -359.476
lowerback 42.1421 0.67538 1.08589
upperback 14.526 -0.464962 -1.08343
thorax -3.82591 -0.806582 -1.48235
lowerneck -12.1812 -1.13249 -7.96766
upperneck -22.3246 -2.50269 -3.37872
head -4.86633 -0.884146 0.312167
rclavicle -2.26615e-014 -9.54166e-015
rhumerus 33.808 31.6765 -65.2478
rradius 81.5263
rwrist -28.9615
rhand -42.6613 2.16026
rfingers 7.12502
rthumb -15.5322 -27.2359
lclavicle -2.26615e-014 -9.54166e-015
lhumerus 36.4048 -36.6865 56.372
lradius 77.8252
lwrist 45.8302
lhand -40.8615 26.3803
lfingers 7.12502
lthumb -13.7982 55.9027
rfemur -81.1148 -11.7481 10.5718
rtibia 92.0941
rfoot 5.8409 -13.5495
rtoes 10.4378
lfemur -78.0581 16.2236 -8.08951
ltibia 88.1456
lfoot 12.9932 -3.50443
ltoes 3.60444
2757
root 0.97084 10.2058 -7.00415 344.126 -67.1443 -359.617
lowerback 42.1954 0.680966 1.18402
upperback 14.5205 -0.418138 -1.04291
thorax -3.84451 -0.783091 -1.50687
lowerneck -12.1824 -1.09462 -7.9904
upperneck -22.2305 -2.42888 -3.34788
head -4.83666 -0.847686 0.324544
rclavicle 1.13307e-014 -7.95139e-015
rhumerus 33.7959 31.7535 -65.1395
rradius 81.6667
rwrist -28.9647
rhand -42.3549 1.83394
rfingers 7.12502
rthumb -15.2371 -27.5849
lclavicle 1.13307e-014 -7.95139e-015
lhumerus 36.2947 -36.447 56.8518
lradius 77.689
lwrist 45.7159
lhand -40.7546 26.6097
lfingers 7.12502
lthumb -13.6952 56.139
rfemur -80.9888 -11.6578 10.6085
rtibia 92.0642
rfoot 5.83577 -13.6136
rtoes 10.2348
lfemur -77.9195 16.1542 -7.94926
ltibia 88.1357
lfoot 12.9306 -3.45142
ltoes 3.8296
2758
root 0.975435 10.2091 -7.00659 343.947 -67.1632 -359.516
lowerback 42.2654 0.699576 1.14149
upperback 14.5045 -0.41322 -1.04235
thorax -3.88167 -0.783273 -1.48561
lowerneck -12.2553 -0.991851 -7.82171
upperneck -22.1474 -2.29601 -3.42995
head -4.80169 -0.793586 0.268829
rclavicle -9.93923e-016 3.37934e-015
rhumerus 33.8048 31.8983 -65.0933
rradius 81.8114
rwrist -28.9775
rhand -42.4912 1.79032
rfingers 7.12502
rthumb -15.3683 -27.6185
lclavicle -9.93923e-016 3.37934e-015
lhumerus 36.1198 -36.1477 57.2375
lradius 77.6443
lwrist 45.6965
lhand -41.12 26.7
lfingers 7.12502
lthumb -14.0473 56.2053
rfemur -80.8604 -11.5426 10.5263
rtibia 92.034
rfoot 5.82014 -13.6397
rtoes 10.0984
lfemur -77.7482 16.0306 -7.88021
ltibia 88.1033
lfoot 12.847 -3.20123
ltoes 4.26278
2759
root 0.977926 10.2094 -7.00846 343.746 -67.1411 -359.379
lowerback 42.2902 0.713897 1.10551
upperback 14.5007 -0.406438 -1.00208
thorax -3.89212 -0.78346 -1.42689
lowerneck -12.3064 -0.930673 -7.78204
upperneck -22.0198 -2.20713 -3.50657
head -4.7556 -0.752358 0.236274
rclavicle -3.3197e-014 5.30755e-014
rhumerus 33.8625 32.0643 -64.9794
rradius 81.9022
rwrist -29.0647
rhand -42.7673 1.9926
rfingers 7.12502
rthumb -15.6342 -27.3956
lclavicle -3.3197e-014 5.30755e-014
lhumerus 35.9145 -35.8367 57.7568
lradius 77.5664
lwrist 45.6256
lhand -41.2964 26.4657
lfingers 7.12502
lthumb -14.2173 55.9591
rfemur -80.7755 -11.4803 10.4234
rtibia 92.0345
rfoot 5.82188 -13.6503
rtoes 10.0097
lfemur -77.6363 15.933 -7.88269
ltibia 88.0816
lfoot 12.7844 -2.99536
ltoes 4.7084
2760
root 0.976378 10.2052 -7.00828 343.574 -67.1262 -359.237
lowerback 42.2398 0.743934 1.0811
upperback 14.5296 -0.37658 -0.952553
thorax -3.84456 -0.772378 -1.37392
lowerneck -12.2087 -0.928268 -7.94644
upperneck -22.0403 -2.17701 -3.37902
head -4.77619 -0.726558 0.304678
rclavicle 5.1684e-015 -4.27387e-014
rhumerus 33.9516 32.1965 -64.7872
rradius 82.0031
rwrist -29.1399
rhand -42.8888 2.2687
rfingers 7.12502
rthumb -15.7513 -27.1104
lclavicle 5.1684e-015 -4.27387e-014
lhumerus 35.7911 -35.5119 58.2366
lradius 77.5128
lwrist 45.5999
lhand -41.1446 25.8578
lfingers 7.12502
lthumb -14.071 55.3615
rfemur -80.7751 -11.4645 10.338
rtibia 92.0726
rfoot 5.81981 -13.6616
rtoes 10.4071
lfemur -77.5878 15.9257 -7.93487
ltibia 88.0921
lfoot 12.3834 -4.05081
ltoes 1.00927
2761
root 0.973713 10.1982 -7.00764 343.575 -67.1565 -359.251
lowerback 42.1602 0.745475 1.07385
upperback 14.5867 -0.385453 -0.983793
thorax -3.75973 -0.776794 -1.4011
lowerneck -12.1315 -0.843057 -7.8367
upperneck -22.1978 -2.0695 -3.26725
head -4.83737 -0.680199 0.32343
rclavicle 7.55382e-015 3.81667e-014
rhumerus 34.1109 32.3593 -64.6957
rradius 82.1446
rwrist -29.2512
rhand -42.9197 2.53939
rfingers 7.12502
rthumb -15.781 -26.8373
lclavicle 7.55382e-015 3.81667e-014
lhumerus 35.7305 -35.1094 58.4356
lradius 77.5077
lwrist 45.6242
lhand -40.5989 25.7022
lfingers 7.12502
lthumb -13.5451 55.2416
rfemur -80.8191 -11.4159 10.3437
rtibia 92.1219
rfoot 5.70891 -13.7438
rtoes 10.8507
lfemur -77.5585 15.9577 -7.91273
ltibia 88.137
lfoot 10.8435 -7.11361
ltoes -10.4156
2762
root 0.973287 10.194 -7.00609 343.64 -67.1856 -359.334
lowerback 42.0621 0.701314 1.15536
upperback 14.6528 -0.418011 -1.04491
thorax -3.66051 -0.787617 -1.4968
lowerneck -12.1549 -0.753762 -7.69482
upperneck -22.2606 -1.94296 -3.17254
head -4.85364 -0.630563 0.32969
rclavicle 3.77691e-014 4.65156e-014
rhumerus 34.3059 32.5281 -64.6505
rradius 82.2485
rwrist -29.2391
rhand -42.3612 1.83222
rfingers 7.12502
rthumb -15.2431 -27.5862
lclavicle 3.77691e-014 4.65156e-014
lhumerus 35.6649 -34.6945 58.6344
lradius 77.4944
lwrist 45.6805
lhand -40.0005 25.8248
lfingers 7.12502
lthumb -12.9682 55.4018
rfemur -80.8375 -11.3862 10.3804
rtibia 92.1496
rfoot 5.59154 -13.8053
rtoes 10.7363
lfemur -77.5238 15.9203 -7.82046
ltibia 88.2098
lfoot 10.4641 -7.01541
ltoes -9.6134
